<?xml version="1.0" encoding="UTF-8"?>
<svg width="215px" height="30px" viewBox="0 0 215 30" version="1.1" xmlns="http://www.w3.org/2000/svg" xmlns:xlink="http://www.w3.org/1999/xlink">
    <title>Arweave</title>
    <g id="Arweave" stroke="none" stroke-width="1" fill="none" fill-rule="evenodd">
        <g id="nav-logo" transform="translate(26.000000, 2.000000)">
            <path d="M48.1597138,17.4550965 C48.09858,17.3329187 48.0466028,17.1923378 48.003872,17.0334438 C47.9610514,16.8745497 47.9244249,16.706499 47.8939029,16.5292917 C47.7533221,16.6820814 47.5913758,16.8257145 47.4080641,16.9601011 C47.2247524,17.0945776 47.0199856,17.2137032 46.793943,17.3175679 C46.5739152,17.4154179 46.3294697,17.491723 46.0606065,17.5467524 C45.7917434,17.6078862 45.5014251,17.6384082 45.1898312,17.6384082 C44.6826269,17.6384082 44.2151013,17.5650656 43.7873442,17.4184701 C43.3656914,17.2717849 43.0021202,17.067018 42.6965409,16.8042593 C42.3910513,16.5415006 42.1527102,16.2299066 41.9816074,15.8692979 C41.8105045,15.5026745 41.7249531,15.1054393 41.7249531,14.6776821 C41.7249531,13.6327517 42.1130316,12.8261623 42.889099,12.2578243 C43.6712707,11.6833818 44.8354166,11.3962055 46.3814469,11.3962055 L47.8021573,11.3962055 L47.8021573,10.8095543 C47.8021573,10.3328721 47.6464052,9.95709209 47.3347215,9.68212456 C47.0230378,9.40096286 46.5739152,9.26047178 45.9872639,9.26047178 C45.4678509,9.26047178 45.0890187,9.37349304 44.8506776,9.59962533 C44.6123365,9.81956344 44.4932108,10.1159862 44.4932108,10.4887139 L41.9449809,10.4887139 C41.9449809,10.0670611 42.0366368,9.66677378 42.2199485,9.2879416 C42.4093646,8.90901966 42.6812799,8.57606029 43.0356944,8.28879418 C43.3963032,8.00161784 43.833217,7.77550351 44.3465256,7.61050504 C44.8659386,7.43940217 45.4586943,7.35385073 46.1247926,7.35385073 C46.7236526,7.35385073 47.2796921,7.42718438 47.7930007,7.5738427 C48.3124137,7.72050103 48.7616261,7.93743182 49.1404583,8.22460816 C49.5193802,8.51187427 49.8157132,8.87544543 50.0296366,9.31541143 C50.2434704,9.74927302 50.3503872,10.253425 50.3503872,10.8278675 L50.3503872,15.0810217 C50.3503872,15.6126436 50.3840512,16.0526993 50.4512894,16.4010095 C50.5184379,16.7493196 50.6162879,17.0487048 50.7445702,17.2992547 L50.7445702,17.4550965 L48.1597138,17.4550965 Z M45.7306096,15.667673 C45.9872639,15.667673 46.225605,15.6371509 46.4455431,15.5760171 C46.665571,15.5148833 46.8641437,15.4354363 47.0414407,15.337676 C47.218648,15.2399158 47.3713479,15.1299467 47.49972,15.0076791 C47.6280022,14.8793968 47.7289044,14.7510248 47.8021573,14.6227425 L47.8021573,12.9178182 L46.5005725,12.9178182 C46.1033374,12.9178182 45.7641838,12.9574968 45.4831119,13.0369438 C45.20204,13.1102865 44.9728555,13.2172033 44.7956482,13.3577842 C44.6184409,13.4921708 44.4870167,13.6571693 44.4014652,13.8527796 C44.3159138,14.0421957 44.273183,14.249925 44.273183,14.4760573 C44.273183,14.818263 44.3923086,15.1023871 44.6306497,15.3285194 C44.8750952,15.5546517 45.2417186,15.667673 45.7306096,15.667673 Z" id="Shape" fill="#FFFFFF" fill-rule="nonzero"></path>
            <path d="M60.3599951,7.35385073 C60.7450215,7.35385073 61.099436,7.38134748 61.4233286,7.43634996 C61.7533255,7.48523009 62.0191364,7.54023257 62.2207613,7.60133946 L61.8449814,10.1404038 C61.50888,10.0609567 61.1636221,10.0028751 60.8092075,9.9662487 C60.4608076,9.92342809 60.1278482,9.90206268 59.8100601,9.90206268 C59.0950368,9.90206268 58.5206841,10.0395913 58.0867328,10.3145589 C57.6589756,10.5895264 57.338225,10.9837093 57.1243015,11.497018 L57.1243015,17.4550965 L54.5760716,17.4550965 L54.5760716,7.53718037 L56.9501465,7.53718037 L57.0693619,9.15956956 C57.4726117,8.5974257 57.9553983,8.15745971 58.5176319,7.83967158 C59.0797758,7.51578802 59.6938968,7.35385073 60.3599951,7.35385073 Z" id="Path" fill="#FFFFFF" fill-rule="nonzero"></path>
            <polygon id="Path" fill="#FFFFFF" fill-rule="nonzero" points="70.8554419 14.3476852 71.7170606 7.53718037 74.0544193 7.53718037 72.2761523 17.4550965 70.0396061 17.4550965 68.7380213 11.1487078 67.4822196 17.4550965 65.2456734 17.4550965 63.4674065 7.53718037 65.7956085 7.53718037 66.6572273 14.3752448 67.9038724 7.53718037 69.6087967 7.53718037"></polygon>
            <path d="M80.5991491,17.6384082 C79.8352906,17.6384082 79.1417225,17.5131782 78.5184448,17.2626283 C77.8951671,17.0120783 77.3604033,16.6729248 76.9143329,16.2451676 C76.4682625,15.811306 76.1230045,15.3041018 75.878559,14.723555 C75.6402179,14.1369037 75.5210923,13.5105738 75.5210923,12.8444755 L75.5210923,12.4777624 C75.5210923,11.720098 75.6402179,11.0294924 75.878559,10.4062147 C76.1169001,9.77683261 76.4499493,9.23596439 76.8777065,8.78378959 C77.3054636,8.33161478 77.8126679,7.98025243 78.3993191,7.72966661 C78.9858806,7.47912568 79.6245091,7.35385073 80.315025,7.35385073 C81.0299585,7.35385073 81.6655347,7.4730123 82.221664,7.71133544 C82.7838078,7.94353623 83.2574378,8.27353317 83.6423744,8.70129035 C84.0335052,9.12904754 84.3298381,9.64540837 84.5315528,10.2503728 C84.7331777,10.8492329 84.8339901,11.512279 84.8339901,12.2395111 L84.8339901,13.321068 L78.1059486,13.321068 C78.1548736,13.6571693 78.2526339,13.9658008 78.3993191,14.2468728 C78.552019,14.5219301 78.7445771,14.7601814 78.976724,14.9618961 C79.2089607,15.163521 79.4747716,15.3193628 79.7742465,15.4293319 C80.0736317,15.5393907 80.4005764,15.5943303 80.754991,15.5943303 C81.0055409,15.5943303 81.2530386,15.5699127 81.4974841,15.5209877 C81.748034,15.4721525 81.9863751,15.401862 82.2124176,15.3102062 C82.4385499,15.212446 82.6494212,15.0932305 82.8449416,14.9527394 C83.0404621,14.8121586 83.211565,14.6471601 83.3582503,14.457744 L84.6323652,15.8326714 C84.4734712,16.0588037 84.2657419,16.281794 84.0090875,16.5018219 C83.7585376,16.7156556 83.4590627,16.9082137 83.1107526,17.0793166 C82.7685468,17.244315 82.3865727,17.3787017 81.9649199,17.4825664 C81.5433569,17.5865208 81.0880401,17.6384082 80.5991491,17.6384082 Z M80.2967117,9.41622388 C80.0094456,9.41622388 79.7466869,9.46820109 79.5084356,9.57206574 C79.2700945,9.66982598 79.0592232,9.81345904 78.8759115,10.0028751 C78.6987043,10.192381 78.5489668,10.4184235 78.4267889,10.6811822 C78.3045213,10.9439409 78.2128655,11.2373114 78.1518214,11.561204 L82.331633,11.561204 L82.331633,11.3594893 C82.3194242,11.0906262 82.267447,10.8370241 82.1757912,10.598683 C82.0841353,10.3604317 81.9527111,10.1556648 81.7816082,9.98456191 C81.6105053,9.80735463 81.3997238,9.66982598 81.1491739,9.57206574 C80.9047284,9.46820109 80.6206043,9.41622388 80.2967117,9.41622388 Z" id="Shape" fill="#FFFFFF" fill-rule="nonzero"></path>
            <path d="M93.2578891,17.4550965 C93.1968451,17.3329187 93.1447781,17.1923378 93.1016882,17.0334438 C93.059496,16.8745497 93.02269,16.706499 92.992168,16.5292917 C92.8512281,16.6820814 92.6896409,16.8257145 92.5065087,16.9601011 C92.3224789,17.0945776 92.1178018,17.2137032 91.8924774,17.3175679 C91.6716416,17.4154179 91.4274654,17.491723 91.1590512,17.5467524 C90.8897392,17.6078862 90.59978,17.6384082 90.2882758,17.6384082 C89.7810716,17.6384082 89.3133664,17.5650656 88.8851604,17.4184701 C88.464136,17.2717849 88.1002955,17.067018 87.7947162,16.8042593 C87.4891369,16.5415006 87.2508856,16.2299066 87.0797827,15.8692979 C86.9086798,15.5026745 86.8231284,15.1054393 86.8231284,14.6776821 C86.8231284,13.6327517 87.2111172,12.8261623 87.9871845,12.2578243 C88.7693562,11.6833818 89.9336817,11.3962055 91.4795324,11.3962055 L92.9006019,11.3962055 L92.9006019,10.8095543 C92.9006019,10.3328721 92.744401,9.95709209 92.4328968,9.68212456 C92.1213926,9.40096286 91.6716416,9.26047178 91.0854392,9.26047178 C90.5656671,9.26047178 90.1868349,9.37349304 89.9489427,9.59962533 C89.7101527,9.81956344 89.5916555,10.1159862 89.5916555,10.4887139 L87.0430665,10.4887139 C87.0430665,10.0670611 87.1347223,9.66677378 87.318034,9.2879416 C87.5075399,8.90901966 87.7794552,8.57606029 88.1338697,8.28879418 C88.494658,8.00161784 88.9309434,7.77550351 89.4444316,7.61050504 C89.9642037,7.43940217 90.55669,7.35385073 91.2227883,7.35385073 C91.8215586,7.35385073 92.3781367,7.42718438 92.8916249,7.5738427 C93.4104993,7.72050103 93.8593526,7.93743182 94.2381847,8.22460816 C94.6179146,8.51187427 94.9141578,8.87544543 95.127812,9.31541143 C95.3414661,9.74927302 95.4482932,10.253425 95.4482932,10.8278675 L95.4482932,15.0810217 C95.4482932,15.6126436 95.4824061,16.0526993 95.549734,16.4010095 C95.617062,16.7493196 95.7140143,17.0487048 95.8423864,17.2992547 L95.8423864,17.4550965 L93.2578891,17.4550965 Z M90.8286951,15.667673 C91.0854392,15.667673 91.3233315,15.6371509 91.5441673,15.5760171 C91.7641054,15.5148833 91.9624985,15.4354363 92.1393467,15.337676 C92.3170926,15.2399158 92.4697028,15.1299467 92.5980748,15.0076791 C92.7264468,14.8793968 92.82699,14.7510248 92.9006019,14.6227425 L92.9006019,12.9178182 L91.5989274,12.9178182 C91.2012434,12.9178182 90.862808,12.9574968 90.5809281,13.0369438 C90.299946,13.1102865 90.0710308,13.2172033 89.8941826,13.3577842 C89.7164367,13.4921708 89.5853715,13.6571693 89.5000894,13.8527796 C89.4139096,14.0421957 89.3717174,14.249925 89.3717174,14.4760573 C89.3717174,14.818263 89.4902146,15.1023871 89.7290046,15.3285194 C89.9731808,15.5546517 90.3403428,15.667673 90.8286951,15.667673 Z" id="Shape" fill="#FFFFFF" fill-rule="nonzero"></path>
            <polygon id="Path" fill="#FFFFFF" fill-rule="nonzero" points="102.552743 14.5126837 102.681115 15.227707 102.809487 14.5402433 104.990914 7.53718037 107.649023 7.53718037 103.881349 17.4550965 101.488961 17.4550965 97.7033321 7.53718037 100.361441 7.53718037"></polygon>
            <path d="M114.423117,17.6384082 C113.659169,17.6384082 112.965242,17.5131782 112.342233,17.2626283 C111.718327,17.0120783 111.184192,16.6729248 110.738032,16.2451676 C110.291872,15.811306 109.946254,15.3041018 109.702078,14.723555 C109.464186,14.1369037 109.344791,13.5105738 109.344791,12.8444755 L109.344791,12.4777624 C109.344791,11.720098 109.464186,11.0294924 109.702078,10.4062147 C109.940868,9.77683261 110.273917,9.23596439 110.701226,8.78378959 C111.129432,8.33161478 111.636636,7.98025243 112.222838,7.72966661 C112.809938,7.47912568 113.448208,7.35385073 114.138544,7.35385073 C114.854016,7.35385073 115.488695,7.4730123 116.045273,7.71133544 C116.607237,7.94353623 117.081226,8.27353317 117.466343,8.70129035 C117.856845,9.12904754 118.153088,9.64540837 118.355072,10.2503728 C118.557056,10.8492329 118.657599,11.512279 118.657599,12.2395111 L118.657599,13.321068 L111.929288,13.321068 C111.978662,13.6571693 112.076512,13.9658008 112.222838,14.2468728 C112.375449,14.5219301 112.568455,14.7601814 112.800064,14.9618961 C113.03257,15.163521 113.298291,15.3193628 113.598125,15.4293319 C113.897061,15.5393907 114.223826,15.5943303 114.57842,15.5943303 C114.828881,15.5943303 115.076648,15.5699127 115.320824,15.5209877 C115.571284,15.4721525 115.810074,15.401862 116.036296,15.3102062 C116.262518,15.212446 116.472581,15.0932305 116.668281,14.9527394 C116.863981,14.8121586 117.035443,14.6471601 117.18177,14.457744 L118.455615,15.8326714 C118.296721,16.0588037 118.089351,16.281794 117.832607,16.5018219 C117.582147,16.7156556 117.282313,16.9082137 116.934003,17.0793166 C116.591976,17.244315 116.210451,17.3787017 115.788529,17.4825664 C115.366607,17.5865208 114.91147,17.6384082 114.423117,17.6384082 Z M114.12059,9.41622388 C113.833324,9.41622388 113.570296,9.46820109 113.332404,9.57206574 C113.093614,9.66982598 112.882653,9.81345904 112.699521,10.0028751 C112.522672,10.192381 112.372755,10.4184235 112.250667,10.6811822 C112.128579,10.9439409 112.036115,11.2373114 111.975071,11.561204 L116.154793,11.561204 L116.154793,11.3594893 C116.143123,11.0906262 116.091056,10.8370241 115.99949,10.598683 C115.907924,10.3604317 115.775961,10.1556648 115.605397,9.98456191 C115.433935,9.80735463 115.222974,9.66982598 114.972514,9.57206574 C114.728337,9.46820109 114.443764,9.41622388 114.12059,9.41622388 Z" id="Shape" fill="#FFFFFF" fill-rule="nonzero"></path>
            <path d="M123.460329,15.9793567 C123.460329,15.7410156 123.500726,15.5209877 123.579724,15.3193628 C123.65962,15.1115437 123.775424,14.9343365 123.928035,14.787741 C124.080645,14.6349513 124.267368,14.5157359 124.487306,14.4301844 C124.707244,14.3385286 124.955011,14.2927456 125.229709,14.2927456 C125.504407,14.2927456 125.752174,14.3385286 125.972112,14.4301844 C126.192051,14.5157359 126.37608,14.6349513 126.522407,14.787741 C126.675017,14.9343365 126.790821,15.1115437 126.870717,15.3193628 C126.955999,15.5209877 126.999089,15.7410156 126.999089,15.9793567 C126.999089,16.2115036 126.955999,16.4284793 126.870717,16.6301042 C126.790821,16.8318189 126.675017,17.0090261 126.522407,17.1618158 C126.37608,17.3084113 126.192051,17.4245745 125.972112,17.510126 C125.752174,17.5956774 125.504407,17.6384082 125.229709,17.6384082 C124.955011,17.6384082 124.707244,17.5956774 124.487306,17.510126 C124.267368,17.4245745 124.080645,17.3084113 123.928035,17.1618158 C123.775424,17.0090261 123.65962,16.8318189 123.579724,16.6301042 C123.500726,16.4284793 123.460329,16.2115036 123.460329,15.9793567 Z" id="Path" fill="#FFFFFF" fill-rule="nonzero"></path>
            <path d="M131.811694,12.4045095 C131.811694,11.6833818 131.91493,11.0172836 132.123198,10.4062147 C132.330568,9.78904142 132.633095,9.25436738 133.030779,8.8021028 C133.433849,8.349928 133.922202,7.99551344 134.496734,7.7388322 C135.07755,7.48217788 135.740955,7.35385073 136.486052,7.35385073 C137.231148,7.35385073 137.894553,7.48217788 138.47537,7.7388322 C139.055288,7.99551344 139.544538,8.349928 139.941325,8.8021028 C140.345292,9.25436738 140.650513,9.78904142 140.858781,10.4062147 C141.066151,11.0172836 141.170285,11.6833818 141.170285,12.4045095 L141.170285,12.5969778 C141.170285,13.3241202 141.066151,13.9963229 140.858781,14.6135859 C140.650513,15.2246548 140.347986,15.7562766 139.951199,16.2084514 C139.553515,16.660716 139.065163,17.0151305 138.484347,17.2717849 C137.903531,17.5223348 137.243716,17.6475648 136.504006,17.6475648 C135.75891,17.6475648 135.092811,17.5223348 134.505711,17.2717849 C133.925793,17.0151305 133.433849,16.660716 133.030779,16.2084514 C132.633095,15.7562766 132.330568,15.2246548 132.123198,14.6135859 C131.91493,13.9963229 131.811694,13.3241202 131.811694,12.5969778 L131.811694,12.4045095 Z M134.359385,12.5969778 C134.359385,13.0125262 134.398884,13.4035672 134.47878,13.7702803 C134.557778,14.1307993 134.683457,14.4485874 134.854021,14.723555 C135.025483,14.9924181 135.245421,15.2063416 135.514733,15.3651458 C135.789432,15.5240399 136.119788,15.6034869 136.504006,15.6034869 C136.877452,15.6034869 137.197933,15.5240399 137.467245,15.3651458 C137.735659,15.2063416 137.952904,14.9924181 138.118082,14.723555 C138.288647,14.4485874 138.414326,14.1307993 138.493324,13.7702803 C138.57322,13.4035672 138.612719,13.0125262 138.612719,12.5969778 L138.612719,12.4045095 C138.612719,12.00117 138.57322,11.6191958 138.493324,11.2586769 C138.414326,10.8981579 138.288647,10.5803698 138.118082,10.3054022 C137.952904,10.0304347 137.735659,9.81345904 137.467245,9.65456497 C137.197933,9.49567091 136.871168,9.41622388 136.486052,9.41622388 C136.10722,9.41622388 135.783148,9.49567091 135.514733,9.65456497 C135.245421,9.81345904 135.025483,10.0304347 134.854021,10.3054022 C134.683457,10.5803698 134.557778,10.8981579 134.47878,11.2586769 C134.398884,11.6191958 134.359385,12.00117 134.359385,12.4045095 L134.359385,12.5969778 Z" id="Shape" fill="#FFFFFF" fill-rule="nonzero"></path>
            <path d="M150.556705,7.35385073 C150.940923,7.35385073 151.295517,7.38134748 151.619589,7.43634996 C151.949945,7.48523009 152.215667,7.54023257 152.416753,7.60133946 L152.041512,10.1404038 C151.704872,10.0609567 151.360152,10.0028751 151.005558,9.9662487 C150.657248,9.92342809 150.324199,9.90206268 150.006411,9.90206268 C149.290939,9.90206268 148.717304,10.0395913 148.282814,10.3145589 C147.855506,10.5895264 147.534127,10.9837093 147.320473,11.497018 L147.320473,17.4550965 L144.772781,17.4550965 L144.772781,7.53718037 L147.146318,7.53718037 L147.265713,9.15956956 C147.668783,8.5974257 148.151749,8.15745971 148.713713,7.83967158 C149.275678,7.51578802 149.890607,7.35385073 150.556705,7.35385073 Z" id="Path" fill="#FFFFFF" fill-rule="nonzero"></path>
            <path d="M154.451854,12.4228228 C154.451854,11.671173 154.54342,10.9837093 154.726552,10.3604317 C154.915968,9.73706421 155.18528,9.20239017 155.53359,8.75631977 C155.8819,8.3101596 156.303822,7.96490164 156.798459,7.72050103 C157.293095,7.4760645 157.852366,7.35385073 158.476272,7.35385073 C159.056191,7.35385073 159.554418,7.45161995 159.970056,7.64716738 C160.385694,7.84272378 160.740288,8.12074351 161.032941,8.48126247 L161.134381,7.53718037 L163.453158,7.53718037 L163.453158,17.1342562 C163.453158,17.8064589 163.337353,18.405319 163.104847,18.9308364 C162.878625,19.4564436 162.558144,19.8994618 162.142506,20.2599808 C161.733152,20.6204997 161.238515,20.8925048 160.657699,21.0758165 C160.083167,21.2652326 159.447591,21.3599406 158.750971,21.3599406 C158.451137,21.3599406 158.130655,21.3294186 157.788629,21.2682848 C157.446603,21.207151 157.10727,21.1124429 156.77063,20.9841607 C156.434888,20.8557886 156.117099,20.6907901 155.818163,20.4891652 C155.518329,20.293555 155.261585,20.0583559 155.047931,19.7832986 L156.193404,18.2342161 C156.517477,18.6009292 156.883741,18.878949 157.293095,19.068365 C157.703347,19.2638855 158.145916,19.3617356 158.622598,19.3617356 C159.337173,19.3617356 159.893751,19.1691775 160.290537,18.7842409 C160.694505,18.405319 160.895592,17.8645405 160.895592,17.1618158 L160.895592,16.5934778 C160.596655,16.9234747 160.244754,17.180129 159.841684,17.3634407 C159.444898,17.5467524 158.983477,17.6384082 158.45742,17.6384082 C157.840696,17.6384082 157.284118,17.5131782 156.789482,17.2626283 C156.300232,17.0059739 155.8819,16.6546116 155.53359,16.2084514 C155.18528,15.762381 154.915968,15.2338114 154.726552,14.6227425 C154.54342,14.0054795 154.451854,13.3364187 154.451854,12.615291 L154.451854,12.4228228 Z M157.00942,12.615291 C157.00942,13.0308394 157.048919,13.418918 157.128815,13.7794369 C157.214097,14.1338515 157.342469,14.4455352 157.513931,14.7143983 C157.684495,14.9771571 157.90174,15.1848864 158.164768,15.337676 C158.426898,15.4904657 158.738403,15.5668605 159.099281,15.5668605 C159.545441,15.5668605 159.911705,15.4813091 160.198971,15.3102062 C160.492521,15.1391033 160.725027,14.9007622 160.895592,14.5951829 L160.895592,10.3970581 C160.725027,10.0853744 160.492521,9.84712303 160.198971,9.68212456 C159.911705,9.51102169 159.551725,9.42547025 159.117235,9.42547025 C158.757254,9.42547025 158.44575,9.50491729 158.182722,9.66372158 C157.919694,9.81651124 157.699756,10.0304347 157.522908,10.3054022 C157.351446,10.5742654 157.223074,10.8920535 157.137792,11.2586769 C157.05251,11.6191958 157.00942,12.0072744 157.00942,12.4228228 L157.00942,12.615291 Z" id="Shape" fill="#FFFFFF" fill-rule="nonzero"></path>
            <circle id="Oval" stroke="#FFFFFF" stroke-width="2.5" cx="13.1637" cy="13.1637" r="13.1637"></circle>
            <path d="M15.6211718,17.9205574 C15.5572551,17.792724 15.5029438,17.6456796 15.458238,17.4795142 C15.4134425,17.3132589 15.3751104,17.137488 15.343152,16.9521115 C15.1961077,17.1119033 15.0267105,17.2621794 14.8349603,17.4027602 C14.6431204,17.5434309 14.4290174,17.6681223 14.1924717,17.7767448 C13.9623895,17.8789936 13.7066329,17.9589792 13.4253815,18.0164325 C13.14413,18.0803492 12.8405256,18.1123973 12.5144786,18.1123973 C11.983934,18.1123973 11.4948635,18.0356434 11.0474465,17.8822253 C10.6063135,17.7288073 10.2259552,17.5147043 9.90637167,17.2398265 C9.58669836,16.9649487 9.33740524,16.6389017 9.15840255,16.2617752 C8.97939985,15.8781852 8.88998828,15.4627266 8.88998828,15.0152198 C8.88998828,13.9220825 9.29584142,13.0783281 10.1077273,12.483777 C10.9259868,11.882942 12.1437258,11.5824796 13.761034,11.5824796 L15.247277,11.5824796 L15.247277,10.9688074 C15.247277,10.4701314 15.0842535,10.0770257 14.7582064,9.7894005 C14.4322492,9.49531183 13.9623895,9.34826749 13.3487173,9.34826749 C12.8053355,9.34826749 12.4089981,9.46658521 12.159705,9.70304113 C11.9104118,9.9332131 11.7857204,10.2432809 11.7857204,10.6331549 L9.12007047,10.6331549 C9.12007047,10.1921117 9.21594554,9.77342132 9.40769566,9.37708387 C9.60590928,8.98074641 9.89039249,8.63234649 10.2611453,8.3318841 C10.6382718,8.0314217 11.095384,7.79496579 11.6323023,7.62233681 C12.1756841,7.4433431 12.7957301,7.35385073 13.4925299,7.35385073 C14.1189496,7.35385073 14.7006634,7.43055976 15.2376715,7.58397781 C15.7810533,7.73739587 16.2508232,7.96436302 16.6471606,8.26473564 C17.0434981,8.56519804 17.3535659,8.94555631 17.5772744,9.40581048 C17.8010727,9.85969093 17.9129269,10.3870935 17.9129269,10.9879286 L17.9129269,15.4371419 C17.9129269,15.9932711 17.9480272,16.4535253 18.0184074,16.8179044 C18.0886978,17.1822835 18.1909466,17.4954933 18.3252435,17.7575339 L18.3252435,17.9205574 L15.6211718,17.9205574 Z M13.0802133,16.0508141 C13.3487173,16.0508141 13.5980104,16.0188558 13.8280926,15.9549391 C14.0582646,15.8909326 14.2659939,15.8078947 14.4513703,15.7055562 C14.6367467,15.6033074 14.7965385,15.4882214 14.9308354,15.360388 C15.0650425,15.2261809 15.1705231,15.091884 15.247277,14.9576768 L15.247277,13.1742032 L13.8856356,13.1742032 C13.470177,13.1742032 13.1154034,13.215767 12.8213147,13.2988048 C12.527226,13.3755588 12.2875384,13.487413 12.102162,13.6344573 C11.9167856,13.7750382 11.7793467,13.9476672 11.6898453,14.1522545 C11.600344,14.3503783 11.5556382,14.5677131 11.5556382,14.8042588 C11.5556382,15.1622642 11.6802399,15.4594948 11.929533,15.6960405 C12.1852896,15.9324964 12.5687898,16.0508141 13.0802133,16.0508141 Z" id="Shape" fill="#FFFFFF" fill-rule="nonzero"></path>
        </g>
    </g>
</svg>