<?xml version="1.0" encoding="UTF-8"?>
<svg width="2400px" height="2695px" viewBox="0 0 2400 2695" version="1.1" xmlns="http://www.w3.org/2000/svg" xmlns:xlink="http://www.w3.org/1999/xlink">
    <title>tester copy 40</title>
    <defs>
        <radialGradient cx="0%" cy="62.3639938%" fx="0%" fy="62.3639938%" r="100%" gradientTransform="translate(0.000000,0.623640),scale(0.934211,1.000000),rotate(90.000000),translate(-0.000000,-0.623640)" id="radialGradient-1">
            <stop stop-color="#FAB0A3" offset="0%"></stop>
            <stop stop-color="#FFB83E" offset="100%"></stop>
        </radialGradient>
        <radialGradient cx="0%" cy="62.3639938%" fx="0%" fy="62.3639938%" r="100%" gradientTransform="translate(0.000000,0.623640),scale(0.696203,1.000000),rotate(90.000000),translate(-0.000000,-0.623640)" id="radialGradient-2">
            <stop stop-color="#FFFFFF" offset="0%"></stop>
            <stop stop-color="#EFEFEF" offset="100%"></stop>
        </radialGradient>
        <radialGradient cx="0%" cy="62.3639938%" fx="0%" fy="62.3639938%" r="125.375297%" gradientTransform="translate(0.000000,0.623640),scale(1.000000,0.797605),rotate(90.000000),translate(-0.000000,-0.623640)" id="radialGradient-3">
            <stop stop-color="#FFF095" offset="0%"></stop>
            <stop stop-color="#FFDC5C" offset="100%"></stop>
        </radialGradient>
        <radialGradient cx="0%" cy="62.3639938%" fx="0%" fy="62.3639938%" r="78.2632773%" gradientTransform="translate(0.000000,0.623640),scale(0.689854,1.000000),rotate(28.743528),translate(-0.000000,-0.623640)" id="radialGradient-4">
            <stop stop-color="#CACACA" offset="0%"></stop>
            <stop stop-color="#FFFFFF" offset="100%"></stop>
        </radialGradient>
        <linearGradient x1="81.5588433%" y1="0%" x2="18.4411567%" y2="100%" id="linearGradient-5">
            <stop stop-color="#43FF8D" offset="0%"></stop>
            <stop stop-color="#DB59FF" offset="100%"></stop>
        </linearGradient>
        <linearGradient x1="29.5564504%" y1="164.717332%" x2="68.2815982%" y2="30.9313734%" id="linearGradient-6">
            <stop stop-color="#000000" offset="0%"></stop>
            <stop stop-color="#000000" offset="100%"></stop>
        </linearGradient>
        <path d="M683.7835,1774.64888 L754.487011,1836.20658 L754.487011,1836.20658 L904.260821,1759.35843 C915.071135,1753.81171 928.331126,1758.0787 933.877841,1768.88901 C935.472371,1771.99669 936.304037,1775.43936 936.304037,1778.93223 L936.304037,1905.36612 C936.304037,1913.33169 931.998285,1920.67507 925.046998,1924.56479 L768.62759,2012.09209 C760.217976,2016.79784 749.724624,2015.48281 742.736302,2008.84737 L647.337365,1918.26571 C647.337365,1922.97316 647.337365,1900.67782 647.337365,1851.37968 C647.337365,1831.33356 647.337365,1811.28744 647.337365,1791.24133 C647.337365,1779.09106 657.1871,1769.24133 669.337365,1769.24133 C674.647553,1769.24133 679.778546,1771.16199 683.7835,1774.64888 Z" id="path-7"></path>
        <filter x="-8.5%" y="-3.8%" width="117.0%" height="110.8%" filterUnits="objectBoundingBox" id="filter-8">
            <feOffset dx="-49" dy="-48" in="SourceAlpha" result="shadowOffsetInner1"></feOffset>
            <feComposite in="shadowOffsetInner1" in2="SourceAlpha" operator="arithmetic" k2="-1" k3="1" result="shadowInnerInner1"></feComposite>
            <feColorMatrix values="0 0 0 0 0   0 0 0 0 0   0 0 0 0 0  0 0 0 0.2 0" type="matrix" in="shadowInnerInner1"></feColorMatrix>
        </filter>
        <radialGradient cx="0%" cy="62.3639938%" fx="0%" fy="62.3639938%" r="61.5161771%" gradientTransform="translate(0.000000,0.623640),scale(0.972829,1.000000),rotate(37.720250),translate(-0.000000,-0.623640)" id="radialGradient-9">
            <stop stop-color="#CACACA" offset="0%"></stop>
            <stop stop-color="#FFFFFF" offset="100%"></stop>
        </radialGradient>
        <path d="M172,0 C200.166522,-5.1741062e-15 223,22.8334778 223,51 L223,149.182927 C223,177.349449 200.166522,200.182927 172,200.182927 C143.833478,200.182927 121,177.349449 121,149.182927 L121,51 C121,22.8334778 143.833478,5.1741062e-15 172,0 Z" id="path-10"></path>
        <filter x="-9.8%" y="-5.0%" width="119.6%" height="110.0%" filterUnits="objectBoundingBox" id="filter-11">
            <feOffset dx="-20" dy="1" in="SourceAlpha" result="shadowOffsetInner1"></feOffset>
            <feComposite in="shadowOffsetInner1" in2="SourceAlpha" operator="arithmetic" k2="-1" k3="1" result="shadowInnerInner1"></feComposite>
            <feColorMatrix values="0 0 0 0 0   0 0 0 0 0   0 0 0 0 0  0 0 0 0.7 0" type="matrix" in="shadowInnerInner1"></feColorMatrix>
        </filter>
        <ellipse id="path-12" cx="840.007678" cy="947.591463" rx="840.007678" ry="804"></ellipse>
        <filter x="-3.3%" y="-3.4%" width="106.5%" height="106.8%" filterUnits="objectBoundingBox" id="filter-13">
            <feOffset dx="-110" dy="1" in="SourceAlpha" result="shadowOffsetInner1"></feOffset>
            <feComposite in="shadowOffsetInner1" in2="SourceAlpha" operator="arithmetic" k2="-1" k3="1" result="shadowInnerInner1"></feComposite>
            <feColorMatrix values="0 0 0 0 0   0 0 0 0 0   0 0 0 0 0  0 0 0 0.2 0" type="matrix" in="shadowInnerInner1"></feColorMatrix>
        </filter>
        <linearGradient x1="28.1092913%" y1="10.1679529%" x2="57.5187228%" y2="89.8629533%" id="linearGradient-14">
            <stop stop-color="#FFFFFF" stop-opacity="0.6" offset="0%"></stop>
            <stop stop-color="#FFFFFF" stop-opacity="0.2" offset="100%"></stop>
        </linearGradient>
    </defs>
    <g id="tester-copy-40" stroke="none" stroke-width="1" fill="none" fill-rule="evenodd">
        <g id="Group-7" transform="translate(255.000000, 170.000000)">
            <g id="dux" transform="translate(220.934907, 210.591463)">
                <ellipse id="base-layer" fill="url(#radialGradient-1)" cx="765.100671" cy="714.765101" rx="765.100671" ry="714.765101"></ellipse>
                <path d="M640.451421,1313.06342 C746.271247,1237.4416 888.299185,1194.46515 1042.28793,1213.58148 C1357.12599,1252.66584 1553.10829,1252.73621 1630.31742,1214.01382 C1680.08795,1365.29351 1679.98549,1504.88163 1629.96927,1632.77597 C1580.07188,1760.36649 1507.90426,1872.04404 1401.49161,1948.08951 C1309.77709,2013.63128 1192.62869,2052.69128 1042.41113,2052.69128 C880.134602,2052.69128 733.214509,2005.69955 626.867662,1929.70111 C520.663383,1853.80455 454.921667,1748.97043 454.921667,1633.14019 C454.921667,1513.11946 526.822099,1394.26612 640.451421,1313.06342 Z" id="Oval" stroke="#000000" stroke-width="2" fill="url(#radialGradient-2)"></path>
                <path d="M721.455399,43.1839572 C1102.34863,43.1839572 1423.14749,348.863517 1423.14749,704.697987 C1423.14749,928.748755 1335.19437,1139.09292 1150.26409,1264.16453 C1356.25738,1283.77291 1492.10709,1287.16009 1557.81668,1274.32492 C1588.42495,1413.44224 1578.73937,1538.33154 1528.75996,1648.99282 C1436.15617,1854.03033 1278.21319,2006.85613 993.066507,1991.91223 C707.919824,1976.96833 485.443835,1799.20922 496.152477,1594.87615 C500.468888,1512.51412 542.295388,1435.76466 609.251473,1375.528 L609.251705,1375.54658 C206.978029,1329.19394 20.1342282,1031.5292 20.1342282,704.697987 C20.1342282,348.863517 340.562164,43.1839572 721.455399,43.1839572 Z" id="2nd-Layer" fill="url(#radialGradient-3)"></path>
                <path d="M496.152477,1594.87615 C506.861119,1390.54309 748.44174,1220.75507 1031.84593,1251.95674 C1304.9208,1282.02119 1480.24438,1289.47725 1557.81668,1274.32492 C1588.42495,1413.44224 1578.73937,1538.33154 1528.75996,1648.99282 C1436.15617,1854.03033 1278.21319,2006.85613 993.066507,1991.91223 C707.919824,1976.96833 485.443835,1799.20922 496.152477,1594.87615 Z" id="Combined-Shape" fill="url(#radialGradient-4)"></path>
                <path d="M1066.5394,1404.5 C1075.49673,1404.5 1091.11183,1417.32479 1104.54028,1430.77153 L1105.36804,1431.60397 C1117.70156,1444.06021 1129.51371,1458.23197 1129.51371,1468.2253 C1129.51371,1492.48761 1120.89892,1520.03109 1107.21418,1540.66032 C1096.51282,1556.79223 1082.64061,1569.5 1066.5394,1569.5 C1050.43819,1569.5 1036.56598,1556.79223 1025.86462,1540.66032 C1012.17988,1520.03109 1003.56509,1492.48761 1003.56509,1468.2253 C1003.56509,1458.23197 1015.37725,1444.06021 1027.71076,1431.60397 C1041.32022,1417.8591 1057.39738,1404.5 1066.5394,1404.5 Z" id="Oval" stroke="url(#linearGradient-6)" stroke-width="25" fill="url(#linearGradient-5)"></path>
                <path d="M765.100671,0 C1187.6541,0 1530.20134,320.011236 1530.20134,714.765101 C1530.20134,920.765745 1436.91784,1106.41225 1287.66071,1236.84934 L1309.62879,1238.22838 L1330.94245,1239.39306 L1351.6017,1240.34337 L1371.60654,1241.07931 L1390.95696,1241.60091 C1394.1275,1241.66997 1397.27077,1241.73011 1400.38677,1241.78132 L1418.75558,1241.98138 C1421.76251,1241.99686 1424.74218,1242.00341 1427.69458,1242.00102 L1445.08176,1241.87956 C1447.92509,1241.84145 1450.74116,1241.79441 1453.52995,1241.73844 L1469.93552,1241.29546 C1472.61525,1241.20377 1475.26771,1241.10314 1477.89291,1240.99359 L1493.31686,1240.22909 C1495.83299,1240.08381 1498.32184,1239.9296 1500.78343,1239.76647 L1515.22577,1238.68046 C1566.98127,1234.30551 1605.53951,1225.60817 1630.90059,1212.5891 C1681.11946,1364.54395 1681.11946,1504.72764 1630.90059,1633.14019 C1628.9621,1638.09702 1626.99002,1643.02984 1624.98367,1647.93751 L1618.86104,1662.5839 C1617.82323,1665.01201 1616.77668,1667.43354 1615.72129,1669.84834 L1609.28226,1684.25539 C1607.10012,1689.03009 1604.88195,1693.77676 1602.62706,1698.49424 L1595.7515,1712.55798 L1588.65138,1726.43971 L1581.32253,1740.13252 L1573.76076,1753.62951 C1571.20088,1758.09509 1568.60148,1762.52689 1565.96187,1766.92375 L1557.92167,1780.00835 C1555.20092,1784.33418 1552.43926,1788.62391 1549.63598,1792.87641 L1541.10061,1805.521 C1532.439,1818.05156 1523.39658,1830.23658 1513.95452,1842.04496 L1504.37853,1853.72665 C1402.41725,1975.04197 1255.7014,2053.69128 1042.41113,2053.69128 C717.397373,2053.69128 453.921667,1865.40414 453.921667,1633.14019 C453.921667,1550.86148 487.61025,1469.11577 545.346301,1399.61681 C466.322496,1377.51755 383.266418,1349.62451 317.248658,1306.42148 C119.743043,1177.1708 0,957.148134 0,714.765101 C0,320.011236 342.547238,0 765.100671,0 Z M765.100671,40.2684564 C739.537483,40.2684564 714.287259,41.4988549 689.414025,43.8991531 C322.764314,60.4449705 20.1342282,358.886926 20.1342282,704.697987 C20.1342282,931.704263 127.919862,1156.52586 321.242987,1280.95532 C400.924442,1332.24107 503.227362,1362.22171 606.091507,1374.79204 L609.128,1375.64 L607.601089,1377.02073 C542.275079,1436.42399 501.267667,1511.65593 496.29348,1592.4026 L496.152477,1594.87615 C496.001047,1597.7656 495.896246,1600.64973 495.837592,1603.52817 L495.853812,1603.52641 C494.748902,1613.41883 494.190123,1623.29997 494.190123,1633.14019 C494.190123,1839.69659 737.290323,2013.42282 1042.41113,2013.42282 C1319.89398,2013.42282 1492.63457,1876.13164 1593.39795,1618.47386 C1635.26612,1511.41457 1639.56029,1395.27086 1605.75144,1268.93951 L1604.63758,1264.93289 L1601.39606,1265.81215 C1588.20119,1269.18189 1573.68269,1272.02289 1557.82185,1274.34637 L1557.81668,1274.32492 C1557.65351,1274.35679 1557.48992,1274.38856 1557.32588,1274.42023 C1529.63588,1278.44906 1497.87293,1280.90784 1461.93476,1281.85501 C1395.14847,1282.65064 1304.81496,1278.00089 1190.93272,1267.90467 L1261.16249,1206.52784 C1406.28331,1079.70551 1489.93289,903.418673 1489.93289,714.765101 C1489.93289,342.886409 1166.00381,40.2684564 765.100671,40.2684564 Z" id="outer-outline" fill="#000000" fill-rule="nonzero"></path>
                <g id="body-shine" transform="translate(818.778914, 1429.530201)" fill="#000000">
                    <path d="M502.028519,0.0245266136 C504.17317,24.1585321 502.439971,48.5395157 496.828924,73.1674773 C479.292472,150.138326 409.27331,225.513246 272.38716,249.649967 C135.501009,273.786689 14.05071,233.906144 1.12032345,160.574278 C-0.823800269,149.548605 -0.2040269,138.394483 2.7178738,127.317747 C21.9277743,196.151917 139.931003,232.737105 272.38716,209.381511 C409.27331,185.244789 479.292472,109.86987 496.828924,32.8990209 C499.319949,21.9654351 501.046682,11.0805266 502.009124,0.244295413 Z" id="Combined-Shape"></path>
                </g>
                <g id="right-eye" transform="translate(453.020134, 644.295302)">
                    <circle id="Oval" fill="#000000" cx="80.5369128" cy="80.5369128" r="80.5369128"></circle>
                    <circle id="Oval" stroke="#FFFFFF" fill="#FFFFFF" cx="110.738255" cy="50.3355705" r="29.7013423"></circle>
                </g>
                <g id="left-eye" transform="translate(30.201342, 644.295302)">
                    <circle id="Oval" fill="#000000" cx="60.4026846" cy="60.4026846" r="60.4026846"></circle>
                    <circle id="Oval" stroke="#FFFFFF" fill="#D8D8D8" cx="80.5369128" cy="40.2684564" r="19.6342282"></circle>
                </g>
            </g>
            <g id="Rectangle">
                <use fill="#B262FF" fill-rule="evenodd" xlink:href="#path-7"></use>
                <use fill="black" fill-opacity="1" filter="url(#filter-8)" xlink:href="#path-7"></use>
                <path stroke="#000000" stroke-width="26" d="M910.195449,1770.92476 C912.406649,1769.79021 914.868385,1769.65933 917.060959,1770.36489 C919.253534,1771.07044 921.176947,1772.61244 922.311502,1774.82364 C922.96381,1776.09496 923.304037,1777.50333 923.304037,1778.93223 L923.304037,1778.93223 L923.304037,1905.36612 C923.304037,1906.99544 922.863676,1908.56113 922.067851,1909.91839 C921.272027,1911.27566 920.120739,1912.42449 918.698884,1913.22012 L918.698884,1913.22012 L762.279477,2000.74743 C760.559328,2001.70997 758.626071,2002.05674 756.765492,2001.82357 C754.904914,2001.5904 753.117016,2000.77729 751.687586,1999.42004 L751.687586,1999.42004 L660.337365,1912.68265 L660.337365,1791.24133 C660.337365,1788.75605 661.344724,1786.50605 662.973404,1784.87737 C664.602083,1783.24869 666.852083,1782.24133 669.337365,1782.24133 C671.509714,1782.24133 673.608757,1783.02705 675.247147,1784.45351 L675.247147,1784.45351 L752.589691,1851.79145 Z" stroke-linejoin="square"></path>
            </g>
            <rect id="Rectangle" fill-opacity="0.5" fill="#D8D8D8" x="943" y="1988.59146" width="206" height="50" rx="24"></rect>
            <rect id="Rectangle-Copy-2" fill-opacity="0.5" fill="#D8D8D8" x="1205" y="1954.59146" width="139" height="118" rx="44"></rect>
            <rect id="Rectangle-Copy-2" fill-opacity="0.5" fill="#D8D8D8" x="1400" y="1965.59146" width="128" height="84" rx="42"></rect>
            <rect id="Rectangle" fill-opacity="0.5" fill="#D8D8D8" x="993" y="2064.59146" width="105" height="50" rx="24"></rect>
            <rect id="Rectangle" fill-opacity="0.5" fill="#D8D8D8" x="998" y="1915.59146" width="94" height="50" rx="24"></rect>
            <path d="M305,227.489463 C305,252.930463 323.484,263.899463 328,266.196463 L328,268.555863 C328,268.997273 328.19141,269.458203 328.42578,269.579263 L328.85156,269.805823 C329.17969,269.977703 336.95316,273.989423 349.99956,273.989423 C363.04596,273.989423 370.81956,269.973823 371.14456,269.805823 C371.14456,269.805823 371.33597,269.704263 371.57034,269.579263 C371.80862,269.458173 372.00003,268.997233 372.00003,268.555863 L372.00003,266.196463 C376.51563,263.899563 395.00003,252.930463 395.00003,227.489463 C395.00003,218.462163 371.81603,213.591463 350.00003,213.591463 C328.18403,213.591463 305,218.462563 305,227.489463 L305,227.489463 Z" id="Path"></path>
            <path d="M245.274563,1056.52896 C206.727,1056.52896 183.0625,1090.25021 183.0625,1117.89965 C183.0625,1177.69359 251.02175,1233.20446 299,1268.52896 C346.97825,1233.19121 414.9375,1177.69359 414.9375,1117.89965 C414.9375,1090.24789 391.284263,1056.52896 352.725437,1056.52896 C331.194187,1056.52896 312.79325,1073.69964 299,1090.00178 C285.1935,1073.69798 266.806475,1056.52896 245.274563,1056.52896 Z" id="Fill-1" stroke="#000000" stroke-width="24" fill="#FA5353" transform="translate(299.000000, 1162.528963) scale(-1, 1) rotate(90.000000) translate(-299.000000, -1162.528963) "></path>
            <g id="Group-6" transform="translate(70.984645, 0.000000)">
                <g id="Group-5" transform="translate(27.104169, 0.000000)">
                    <path d="M812.911186,156.591463 C1041.34824,156.591463 1248.18231,245.175537 1397.89194,388.469041 C1547.39095,531.560947 1639.91119,729.225634 1639.91119,947.591463 C1639.91119,1165.95729 1547.39095,1363.62198 1397.89194,1506.71389 C1248.18231,1650.00739 1041.34824,1738.59146 812.911186,1738.59146 C558.511822,1738.59146 330.895034,1628.72479 179.178772,1455.79368 C186.836904,1456.27913 194.553733,1456.54554 202.324014,1456.58603 L202.324014,1456.58603 L204.394116,1456.59146 L629.411186,1456.59146 C737.797068,1456.59146 835.922068,1412.6594 906.950597,1341.63088 C977.979127,1270.60235 1021.91119,1172.47735 1021.91119,1064.09146 C1021.91119,956.880149 978.926,859.708651 909.250256,788.870808 C839.443881,717.900155 742.84622,673.363792 635.84451,671.643156 L635.84451,671.643156 L629.463844,671.591463 L204.411186,671.591463 C138.456283,671.591463 76.3021531,687.861892 21.7465739,716.576729 C72.3477614,557.823379 173.745061,420.290016 307.763388,321.257089 C447.504597,217.995234 622.718656,156.591463 812.911186,156.591463 Z" id="Combined-Shape" stroke="#000000" stroke-width="26" fill="url(#radialGradient-9)"></path>
                    <g id="Group-4" transform="translate(298.610415, 0.000000)">
                        <rect id="Rectangle" fill="#D8D8D8" x="0" y="539.268754" width="61.5784062" height="61.5856574" rx="17"></rect>
                        <rect id="Rectangle-Copy-3" fill="#D8D8D8" x="83.496144" y="539.268754" width="61.5784062" height="61.5856574" rx="17"></rect>
                        <rect id="Rectangle-Copy-4" fill="#D8D8D8" x="168.03599" y="539.268754" width="61.5784062" height="61.5856574" rx="17"></rect>
                        <g id="Group-3" transform="translate(810.300771, 0.000000)">
                            <circle id="Oval" stroke="#000000" stroke-width="31" fill="#B262FF" cx="172.5" cy="906.091463" r="157"></circle>
                            <rect id="Rectangle" stroke="#979797" fill="#3A3434" x="55" y="883.40607" width="231" height="47.3707865" rx="15"></rect>
                            <line x1="172.5" y1="733.069186" x2="172.5" y2="131.091463" id="Line-3" stroke="#000000" stroke-width="31" stroke-linecap="square"></line>
                            <g id="Rectangle">
                                <use fill="#000000" fill-rule="evenodd" xlink:href="#path-10"></use>
                                <use fill="black" fill-opacity="1" filter="url(#filter-11)" xlink:href="#path-10"></use>
                            </g>
                        </g>
                    </g>
                </g>
                <g id="Oval">
                    <use fill="black" fill-opacity="1" filter="url(#filter-13)" xlink:href="#path-12"></use>
                    <ellipse stroke="#000000" stroke-width="31" stroke-linejoin="square" cx="840.007678" cy="947.591463" rx="824.507678" ry="788.5"></ellipse>
                </g>
                <path d="M173.064925,706.557327 L182.411629,706.557327 C215.045511,706.557327 241.5005,733.012316 241.5005,765.646199 C241.5005,769.349222 241.152406,773.044048 240.460806,776.681915 C224.594534,860.140385 216.661398,943.598856 216.661398,1027.05733 C216.661398,1119.47701 259.070734,1226.86407 343.889404,1349.21849 C355.583343,1366.08737 351.388154,1389.24211 334.519235,1400.936 C328.300043,1405.24727 320.912965,1407.55733 313.345571,1407.55733 L279.742924,1407.55733 C254.338189,1407.55733 230.463369,1395.41589 215.498873,1374.88629 C118.509861,1241.82832 70.0153551,1125.88533 70.0153551,1027.05733 C70.0153551,941.644094 78.3566628,856.230861 95.0392782,770.817629 C102.329587,733.492016 135.034018,706.557327 173.064925,706.557327 Z" id="Rectangle" fill="url(#linearGradient-14)"></path>
            </g>
            <g id="Group-3" transform="translate(0.000000, 1942.591463)">
                <g id="Group-2">
                    <g id="Group-5" transform="translate(199.000000, 0.000000)">
                        <polygon id="Fill-1" fill="#000000" points="256.472763 36.488828 74.1849557 0 0 148.470654 41.5007896 190 253.178425 190 294 149.148617"></polygon>
                        <polygon id="Path" fill="#C8C8C8" points="268.931202 133.362229 153.153589 104.410255 99.7682481 24.2697705 242.077752 52.7484803"></polygon>
                        <polygon id="Path" fill="#C8C8C8" points="80.5567439 29.3096241 134.325987 110.026541 46.6191543 168.531157 22.8687478 144.760525"></polygon>
                        <polygon id="Path" fill="#9F9F9F" points="245.37209 171.229909 76.389603 171.229909 149.101291 122.740806 264.905153 151.705881"></polygon>
                    </g>
                    <g id="Group" transform="translate(567.000000, 324.000000)" stroke="#000000" stroke-linecap="square">
                        <polygon id="Line-10" stroke-width="15" fill="#9F9F9F" points="0 62.1144734 60.8296239 104 102.883932 93.9819702 116 68.8595751 116 27.5302934 38.9609791 10"></polygon>
                        <polygon id="Line-10" stroke-width="16" fill="#C8C8C8" points="0 58.6708602 70.2607694 79 92.0109917 50.6643098 110 25.678178 37.6775762 0"></polygon>
                        <line x1="66" y1="78" x2="98" y2="94" id="Line-10" stroke-width="12"></line>
                    </g>
                    <g id="Group-Copy" transform="translate(0.000000, 227.000000)" stroke="#000000" stroke-linecap="square">
                        <polygon id="Line-10" stroke-width="13" fill="#9F9F9F" points="0 62.1144734 60.8296239 104 102.883932 93.9819702 116 68.8595751 116 27.5302934 87 0 20.9994833 10.4288525"></polygon>
                        <polygon id="Line-10" stroke-width="14" fill="#C8C8C8" points="26.3570026 15 59.9973791 93 84 50 106.736005 23.1015013 84 -3.29691829e-12"></polygon>
                        <line x1="88" y1="56" x2="99" y2="93" id="Line-10" stroke-width="8"></line>
                    </g>
                </g>
                <g id="Group-2" transform="translate(14.223498, 503.840773)" fill="#000000" fill-opacity="0.3">
                    <g id="Group-5">
                        <path d="M331.210832,46.0074633 L388.290786,29.2192413 C390.940001,28.4400605 392.455963,25.6607969 391.676782,23.0115822 C391.197111,21.3806991 389.92167,20.1052578 388.290786,19.6255863 L331.210832,2.83736427 C330.289783,2.56646761 329.310217,2.56646761 328.389168,2.83736427 L271.309214,19.6255863 C268.659999,20.4047671 267.144037,23.1840307 267.923218,25.8332454 C268.402889,27.4641285 269.67833,28.7395698 271.309214,29.2192413 L328.389168,46.0074633 C329.310217,46.27836 330.289783,46.27836 331.210832,46.0074633 Z" id="shadow-copy"></path>
                        <path d="M53.3431286,40.1139318 L91.2792351,25.0703033 C93.8461936,24.0523715 95.1019279,21.1462437 94.083996,18.5792852 C93.575762,17.2976516 92.5608687,16.2827583 91.2792351,15.7745243 L53.3431286,0.730895825 C52.1592209,0.26141518 50.8407791,0.26141518 49.6568714,0.730895825 L11.7207649,15.7745243 C9.15380637,16.7924561 7.89807213,19.6985839 8.91600395,22.2655424 C9.42423797,23.547176 10.4391313,24.5620693 11.7207649,25.0703033 L49.6568714,40.1139318 C50.8407791,40.5834124 52.1592209,40.5834124 53.3431286,40.1139318 Z" id="shadow-copy"></path>
                        <path d="M641.493493,40.1816288 L661.707962,32.0194938 C664.268531,30.9855951 665.506142,28.0717032 664.472244,25.511134 C663.923611,24.1523829 662.806555,23.1026887 661.416348,22.6395188 L595.903902,0.812987588 C594.659619,0.398434565 593.30227,0.48937122 592.124406,1.06619799 L554.063244,19.705602 C551.583241,20.9201154 550.557358,23.9151132 551.771871,26.3951169 C552.50503,27.8922066 553.936059,28.925457 555.587793,29.150339 L638.946932,40.4996012 C639.808993,40.6169699 640.68676,40.5073689 641.493493,40.1816288 Z" id="shadow-copy-2"></path>
                    </g>
                </g>
            </g>
        </g>
        <g id="Group" transform="translate(1224.700487, 2395.748954)">
            <ellipse id="shadow" fill-opacity="0.3" fill="#000000" cx="318.214286" cy="257.681358" rx="318.214286" ry="40.5"></ellipse>
            <path d="M236.299513,15.251046 C257.714603,15.251046 278.415394,24.3679134 297.941925,43.8944443 C318.475307,64.427826 337.99063,97.0609422 355.877421,142.251046 L355.877421,142.251046 L116.721604,142.251046 C134.608395,97.0609422 154.123719,64.427826 174.657101,43.8944443 C194.183632,24.3679134 214.884423,15.251046 236.299513,15.251046 Z" id="Oval" stroke="#000000" stroke-width="30" fill="#FFFFFF" transform="translate(236.299513, 78.751046) rotate(-20.000000) translate(-236.299513, -78.751046) "></path>
            <path d="M412.299513,15.251046 C433.714603,15.251046 454.415394,24.3679134 473.941925,43.8944443 C494.475307,64.427826 513.99063,97.0609422 531.877421,142.251046 L531.877421,142.251046 L292.721604,142.251046 C310.608395,97.0609422 330.123719,64.427826 350.657101,43.8944443 C370.183632,24.3679134 390.884423,15.251046 412.299513,15.251046 Z" id="Oval-Copy" stroke="#000000" stroke-width="30" fill="#FFFFFF" transform="translate(412.299513, 78.751046) rotate(-20.000000) translate(-412.299513, -78.751046) "></path>
        </g>
    </g>
</svg>