<?xml version="1.0" encoding="UTF-8"?>
<svg width="237px" height="30px" viewBox="0 0 237 30" version="1.1" xmlns="http://www.w3.org/2000/svg" xmlns:xlink="http://www.w3.org/1999/xlink">
    <title>Metaplex</title>
    <g id="Metaplex" stroke="none" stroke-width="1" fill="none" fill-rule="evenodd">
        <g id="metaplex" transform="translate(25.000000, 6.000000)" fill="#FFFFFF">
            <polygon id="Path" fill-rule="nonzero" points="38.25 17 41.0408192 17 41.0408192 5.75571125 47.5282458 17 49.9029333 17 56.3903458 5.75571125 56.3903458 17 59.1811792 17 59.1811792 0 56.4392917 0 48.7278083 13.4057042 40.9918592 0 38.25 0"></polygon>
            <g id="M">
                <path d="M12.7354792,11.8482208 C12.84605,12.0343 12.8377625,12.2678375 12.7142292,12.4456292 L10.0435292,16.2899667 C9.81332088,16.621325 9.31713338,16.6021292 9.11313338,16.2540542 L0.0766310845,0.831732083 C-0.139160541,0.4634455 0.126430459,0 0.553278501,0 L5.38241963,0 C5.57733879,0 5.75782921,0.102713292 5.85737838,0.27028725 L12.7354792,11.8482208 Z M25.6602959,16.1688417 C25.8754875,16.537175 25.6098625,17 25.1833042,17 L20.3836375,17 C20.1875,17 20.0060959,16.8960167 19.907,16.7268667 L10.5934084,0.831732083 C10.37765,0.4634455 10.6432042,0 11.0700459,0 L15.8965584,0 C16.0929084,0 16.274525,0.104220625 16.37355,0.273756667 L25.6602959,16.1688417 Z M3.88678796,16.8496917 C4.31496129,16.8496917 4.58037379,16.3836083 4.36191671,16.0153458 L1.05053629,10.433325 C0.763930459,9.95017083 0.0229612345,10.1533917 0.0229612345,10.7151708 L0.0229612345,16.2971917 C0.0229612345,16.6023417 0.270298626,16.8496917 0.575404709,16.8496917 L3.88678796,16.8496917 Z" id="Shape"></path>
            </g>
            <polygon id="Path" fill-rule="nonzero" points="65.6661833 17 76.4622458 17 76.4622458 14.2314083 68.4569458 14.2314083 68.4569458 9.88429583 76.4622458 9.88429583 76.4622458 7.11570417 68.4569458 7.11570417 68.4569458 2.76857042 76.4622458 2.76857042 76.4622458 0 65.6661833 0"></polygon>
            <polygon id="Path" fill-rule="nonzero" points="87.14455 17 89.9353833 17 89.9353833 2.76857042 96.3982875 2.76857042 96.3982875 0 80.6571375 0 80.6571375 2.76857042 87.14455 2.76857042"></polygon>
            <path d="M113.078333,17 L116.138333,17 L108.182263,0 L105.464883,0 L97.5086,17 L100.568742,17 L101.93965,14.0371125 L111.682917,14.0371125 L113.078333,17 Z M103.237104,11.2685917 L106.811354,3.61857042 L110.38525,11.2685917 L103.237104,11.2685917 Z" id="Shape" fill-rule="nonzero"></path>
            <path d="M120.971292,17 L123.762125,17 L123.762125,11.6571125 L127.360458,11.6571125 C130.788083,11.6571125 133.260875,9.20429583 133.260875,5.82857042 C133.260875,2.47714083 130.788083,0 127.360458,0 L120.971292,0 L120.971292,17 Z M123.762125,8.88859167 L123.762125,2.76857042 L127.360458,2.76857042 C129.172375,2.76857042 130.470042,4.05571125 130.470042,5.82857042 C130.470042,7.60140833 129.172375,8.88859167 127.360458,8.88859167 L123.762125,8.88859167 Z" id="Shape" fill-rule="nonzero"></path>
            <polygon id="Path" fill-rule="nonzero" points="138.537958 17 149.481 17 149.481 14.2314083 141.328792 14.2314083 141.328792 0 138.537958 0"></polygon>
            <polygon id="Path" fill-rule="nonzero" points="154.382667 17 165.179083 17 165.179083 14.2314083 157.1735 14.2314083 157.1735 9.88429583 165.179083 9.88429583 165.179083 7.11570417 157.1735 7.11570417 157.1735 2.76857042 165.179083 2.76857042 165.179083 0 154.382667 0"></polygon>
            <polygon id="Path" fill-rule="nonzero" points="169.54525 17 173.143583 17 178.284667 10.71 183.400958 17 187 17 180.071792 8.5 187 0 183.42575 0 178.284667 6.29 173.143583 0 169.54525 0 176.473458 8.5"></polygon>
        </g>
    </g>
</svg>