<?xml version="1.0" encoding="UTF-8"?>
<svg width="207px" height="30px" viewBox="0 0 207 30" version="1.1" xmlns="http://www.w3.org/2000/svg" xmlns:xlink="http://www.w3.org/1999/xlink">
    <title>Serum</title>
    <defs>
        <linearGradient x1="50%" y1="99.9940299%" x2="50%" y2="-0.00597014925%" id="linearGradient-1">
            <stop stop-color="#05AAC5" offset="0%"></stop>
            <stop stop-color="#71E0EC" offset="100%"></stop>
        </linearGradient>
        <linearGradient x1="50%" y1="99.995047%" x2="50%" y2="-0.00495304922%" id="linearGradient-2">
            <stop stop-color="#05AAC5" offset="0%"></stop>
            <stop stop-color="#71E0EC" offset="100%"></stop>
        </linearGradient>
        <linearGradient x1="50%" y1="99.995773%" x2="50%" y2="-0.00432259571%" id="linearGradient-3">
            <stop stop-color="#05AAC5" offset="0%"></stop>
            <stop stop-color="#71E0EC" offset="100%"></stop>
        </linearGradient>
    </defs>
    <g id="Serum" stroke="none" stroke-width="1" fill="none" fill-rule="evenodd">
        <g id="Group" transform="translate(84.000000, 0.000000)">
            <g id="Group-2" transform="translate(36.000000, 2.000000)" fill="#FFFFFF" font-family="Helvetica-Bold, Helvetica" font-size="19" font-weight="bold" letter-spacing="0.843125">
                <text id="Serum">
                    <tspan x="0" y="19">Serum</tspan>
                </text>
            </g>
            <g id="serum-logo@logotyp.us-copy">
                <path d="M13.2622851,24.7162211 C8.70766768,24.7162211 5.00902243,21.0175758 5.00902243,16.4629584 C5.00902243,12.0351516 12.4802858,4.21515881 12.7973126,3.88756452 L13.1883122,3.47542976 L13.5898794,3.87699696 C13.9174737,4.20459125 21.5155478,12.0245841 21.5155478,16.4523908 C21.5155478,21.0175758 17.8169026,24.7162211 13.2622851,24.7162211 L13.2622851,24.7162211 Z M13.1988798,5.071131 C12.5436912,5.77915737 11.1699087,7.31145326 9.8066937,9.1079381 C7.38672295,12.2993406 6.10804845,14.8355545 6.10804845,16.4523908 C6.10804845,20.3940899 9.32058604,23.6066275 13.2622851,23.6066275 C17.2039842,23.6066275 20.4165218,20.3940899 20.4165218,16.4523908 C20.4165218,14.8355545 19.1167122,12.2993406 16.6544712,9.1079381 C15.2701211,7.32202082 13.8646359,5.77915737 13.1988798,5.071131 Z" id="Shape" fill="url(#linearGradient-1)"></path>
                <path d="M13.2622851,27.3581105 C7.2493447,27.3581105 2.36713296,22.4653312 2.36713296,16.4629584 C2.36713296,10.5873962 10.5675579,2.3869713 10.9162873,2.04880945 C11.1276384,1.83745829 11.4869354,1.83745829 11.6982866,2.04880945 C11.9096377,2.2601606 11.9096377,2.61945757 11.6982866,2.83080873 C11.6137461,2.91534919 3.47672654,11.0523687 3.47672654,16.4629584 C3.47672654,21.8629804 7.87283061,26.2590845 13.2728527,26.2590845 C18.6728747,26.2590845 23.0689788,21.8629804 23.0689788,16.4629584 C23.0689788,14.2437712 21.6317909,11.1791794 18.905361,7.57564221 C16.8129846,4.81750961 14.7100405,2.72513315 14.6889054,2.70399803 C14.4669867,2.49264688 14.4669867,2.14391747 14.6889054,1.92199875 C14.9002566,1.70008004 15.248986,1.70008004 15.4709047,1.92199875 C15.8302017,2.27072816 24.1785724,10.5768286 24.1785724,16.4629584 C24.1574373,22.4653312 19.2752255,27.3581105 13.2622851,27.3581105 Z" id="Path" fill="url(#linearGradient-2)"></path>
                <path d="M13.2622851,30 C5.94953508,30 3.76936695e-15,24.0504649 3.76936695e-15,16.7377149 C3.76936695e-15,13.7153933 1.52172833,9.99561296 4.51234721,5.69461691 C6.7209668,2.52434955 8.88731616,0.262892168 8.98242419,0.167784147 C9.19377534,-0.054134568 9.54250475,-0.054134568 9.76442347,0.157216589 C9.98634218,0.368567747 9.98634218,0.717297156 9.77499103,0.939215871 C9.75385591,0.960350987 7.56637143,3.24294349 5.41058963,6.33923794 C2.58905168,10.3866126 1.09902602,13.9795823 1.09902602,16.7377149 C1.09902602,23.4375466 6.55188588,28.900974 13.2622851,28.900974 C19.9726844,28.900974 25.4255442,23.4481141 25.4255442,16.7377149 C25.4255442,13.9795823 23.924951,10.3866126 21.0822779,6.33923794 C18.905361,3.24294349 16.6967414,0.960350987 16.6756063,0.939215871 C16.4642552,0.717297156 16.4642552,0.368567747 16.6861739,0.157216589 C16.9080926,-0.054134568 17.256822,-0.054134568 17.4681732,0.167784147 C17.8380377,0.54821623 26.5245702,9.57291065 26.5245702,16.7377149 C26.5245702,24.0504649 20.5750352,30 13.2622851,30 Z" id="Path" fill="url(#linearGradient-3)"></path>
            </g>
        </g>
    </g>
</svg>