<?xml version="1.0" encoding="UTF-8"?>
<svg width="190px" height="30px" viewBox="0 0 190 30" version="1.1" xmlns="http://www.w3.org/2000/svg" xmlns:xlink="http://www.w3.org/1999/xlink">
    <title>Solana</title>
    <defs>
        <linearGradient x1="3.03816138%" y1="91.7733255%" x2="96.9620851%" y2="8.22664944%" id="linearGradient-1">
            <stop stop-color="#9945FF" offset="0%"></stop>
            <stop stop-color="#8A53F4" offset="14%"></stop>
            <stop stop-color="#6377D6" offset="42%"></stop>
            <stop stop-color="#24B0A7" offset="79%"></stop>
            <stop stop-color="#00D18C" offset="99%"></stop>
            <stop stop-color="#00D18C" offset="100%"></stop>
        </linearGradient>
    </defs>
    <g id="Solana" stroke="none" stroke-width="1" fill="none" fill-rule="evenodd">
        <g id="solana" transform="translate(25.000000, 6.000000)">
            <path d="M40.6235521,6.8 L30.4,6.8 L30.4,3.4 L43.2704167,3.4 L43.2704167,0 L30.3764479,0 C29.4809375,0 28.6220833,0.355725 27.9888333,0.988921875 C27.3557604,1.62211698 27,2.48091979 27,3.37639479 L27,6.82360521 C27,7.71908021 27.3557604,8.57788125 27.9888333,9.21107813 C28.6220833,9.844275 29.4809375,10.2 30.3764479,10.2 L40.6,10.2 L40.6,13.6 L27.2431354,13.6 L27.2431354,17 L40.6235521,17 C41.5190625,17 42.3779167,16.644275 43.0109896,16.0110781 C43.6442396,15.3778812 44,14.5190802 44,13.6236052 L44,10.1763948 C44,9.28091979 43.6442396,8.42211875 43.0109896,7.78892187 C42.3779167,7.155725 41.5190625,6.8 40.6235521,6.8 Z" id="Path" fill="#FFFFFF" fill-rule="nonzero"></path>
            <path d="M60.6259066,0 L50.3717929,0 C49.9286855,0 49.4901791,0.0873498958 49.080871,0.257057708 C48.6717399,0.426767292 48.2999474,0.675507396 47.9867285,0.989065312 C47.6736866,1.30262146 47.4254119,1.67485062 47.2560614,2.08448333 C47.0867108,2.4941125 46.9998236,2.93310208 47.0000003,3.37639479 L47.0000003,13.6236052 C46.9998236,14.0668979 47.0867108,14.5058875 47.2560614,14.9155167 C47.4254119,15.3251458 47.6736866,15.697375 47.9867285,16.0109365 C48.2999474,16.3244979 48.6717399,16.5732292 49.080871,16.7429458 C49.4901791,16.9126448 49.9286855,17 50.3717929,17 L60.6259066,17 C61.5207924,17 62.3790475,16.644275 63.0118558,16.0110781 C63.6444872,15.3778812 64.0000003,14.5190802 64.0000003,13.6236052 L64.0000003,3.37639479 C64.0000003,2.48091979 63.6444872,1.62211698 63.0118558,0.988921875 C62.3790475,0.355725 61.5207924,0 60.6259066,0 L60.6259066,0 Z M60.6023709,13.6 L50.4094854,13.6 L50.4094854,3.4 L60.6023709,3.4 L60.6023709,13.6 Z" id="Shape" fill="#FFFFFF" fill-rule="nonzero"></path>
            <path d="M96.5750282,8.22401546e-07 L86.4249674,8.22401546e-07 C85.5165885,8.22401546e-07 84.6453926,0.355727542 84.0032225,0.988922554 C83.3608727,1.62211934 83,2.48092025 83,3.37639512 L83,17.0000008 L86.448858,17.0000008 L86.448858,11.4136044 L96.5511377,11.4136044 L96.5511377,17.0000008 L100,17.0000008 L100,3.37639512 C100.000355,2.93290769 99.9119779,2.49372338 99.7398943,2.08393489 C99.5679903,1.67415173 99.3156129,1.30181813 98.9974917,0.988230158 C98.6795501,0.674642183 98.3017924,0.425951698 97.8861332,0.256382035 C97.4704739,0.0868121952 97.0249964,-0.000308802452 96.5750282,8.22401546e-07 Z M96.5511377,8.01360487 L86.448858,8.01360487 L86.448858,3.40000033 L96.5511377,3.40000033 L96.5511377,8.01360487 Z" id="Shape" fill="#FFFFFF" fill-rule="nonzero"></path>
            <path d="M136.576009,7.31327236e-06 L126.431175,7.31327236e-06 C125.980975,-0.000916703627 125.534907,0.0857287139 125.118647,0.254991266 C124.702388,0.424252756 124.3242,0.672808586 124.005451,0.986428347 C123.686702,1.30004634 123.433858,1.67257284 123.261464,2.0826835 C123.088891,2.49277291 123,2.93241751 123,3.37640065 L123,17.0000073 L126.447875,17.0000073 L126.447875,11.4136253 L136.552125,11.4136253 L136.552125,17.0000073 L140,17.0000073 L140,3.37640065 C140,2.48092604 139.63923,1.62213068 138.997243,0.988935846 C138.355076,0.355741014 137.484129,7.31327236e-06 136.576009,7.31327236e-06 Z M136.552125,8.01362678 L126.455058,8.01362678 L126.455058,3.40000585 L136.552125,3.40000585 L136.552125,8.01362678 Z" id="Shape" fill="#FFFFFF" fill-rule="nonzero"></path>
            <path d="M116.603826,13.6 L115.243443,13.6 L110.368739,1.41666666 C110.202057,0.998649061 109.913684,0.640218228 109.541173,0.387679687 C109.168485,0.135141854 108.728663,0 108.278568,0 L105.250831,0 C104.653892,0 104.081398,0.23706677 103.65929,0.659051041 C103.237181,1.08103354 103,1.6533651 103,2.25014479 L103,17 L106.400957,17 L106.400957,3.39999999 L107.761339,3.39999999 L112.633741,15.5833333 C112.799715,16.0013562 113.087556,16.3598791 113.459713,16.6124708 C113.832047,16.8650625 114.271514,17 114.721432,17 L117.749346,17 C118.346285,17 118.918779,16.7629385 119.340888,16.3409489 C119.762996,15.9189593 120,15.3466437 120,14.7498552 L120,0 L116.599043,0 L116.603826,13.6 Z" id="Path" fill="#FFFFFF" fill-rule="nonzero"></path>
            <path d="M70.5,0 L67,0 L67,13.6236052 C67,14.5190802 67.366224,15.3778812 68.018099,16.0110781 C68.669974,16.644275 69.5539062,17 70.4757552,17 L81,17 L81,13.6 L70.5,13.6 L70.5,0 Z" id="Path" fill="#FFFFFF" fill-rule="nonzero"></path>
            <path d="M3.26333292,12.9625 C3.32405484,12.8971208 3.39742346,12.8445979 3.47903915,12.8080833 C3.56065483,12.7715865 3.64884323,12.751824 3.73833193,12.75 L18.6625489,12.75 C18.7257824,12.7508854 18.7872346,12.7698865 18.8397807,12.8047187 C18.8923268,12.839551 18.9336512,12.8887448 18.9587665,12.94635 C18.9838817,13.0039729 18.9917191,13.0675635 18.9812099,13.1294896 C18.9708788,13.1914156 18.9427355,13.2490385 18.9001642,13.2954167 L15.7366569,16.7875 C15.675935,16.8528792 15.6025842,16.9054021 15.5209507,16.9419167 C15.439335,16.9784312 15.3511466,16.998176 15.2616579,17 L0.327879299,17 C0.264734908,16.9991146 0.203190055,16.9801135 0.15064929,16.9452813 C0.0981103068,16.910449 0.056812628,16.8612552 0.0317240877,16.80365 C0.00663554741,16.7460271 -0.00117511991,16.6824365 0.0092307908,16.6205104 C0.0196367015,16.5585844 0.0478174467,16.5009615 0.0903833571,16.4545833 L3.26333292,12.9625 Z M18.914414,10.0677719 C18.9569852,10.11415 18.9851286,10.1717729 18.9954597,10.233699 C19.0059689,10.295625 18.9981315,10.3592156 18.9730163,10.4168385 C18.947901,10.4744615 18.9065766,10.5236375 18.8540305,10.5584698 C18.8014844,10.5933021 18.7400322,10.6123031 18.6767987,10.6131885 L3.74782585,10.625 C3.65835497,10.623176 3.57014875,10.6034312 3.48853307,10.5669167 C3.40691739,10.5304021 3.33354877,10.4778792 3.27284465,10.4125 L0.0856328326,6.93222812 C0.0430687035,6.88585 0.0148879583,6.82822708 0.00448026635,6.76630104 C-0.00592564437,6.704375 0.00188502295,6.64078437 0.0269735632,6.58316146 C0.0520621035,6.52553854 0.0933597824,6.4763625 0.145900547,6.44153021 C0.198439531,6.40669792 0.259984383,6.38769687 0.323130556,6.38681146 L15.252164,6.375 C15.3416527,6.37682396 15.4298411,6.39656875 15.5114568,6.43308333 C15.5930724,6.46959792 15.6664411,6.52212083 15.727163,6.5875 L18.914414,10.0677719 Z M3.26333292,0.2125 C3.32405484,0.147124021 3.39742346,0.0946057083 3.47903915,0.0580914792 C3.56065483,0.0215774271 3.64884323,0.00181889375 3.73833193,0 L18.6721675,0.0118055615 C18.7352229,0.0126897031 18.7968532,0.0316920729 18.8493993,0.0665268438 C18.9019454,0.101361437 18.9432698,0.150545271 18.968207,0.208161458 C18.9933222,0.265779062 19.0011596,0.329375 18.9908285,0.391299271 C18.9803193,0.453225313 18.9521759,0.510842917 18.9096047,0.557222812 L15.7366569,4.0375 C15.675935,4.10287917 15.6025842,4.15540208 15.5209507,4.19191667 C15.439335,4.22843125 15.3511466,4.24817604 15.2616579,4.25 L0.327879299,4.25 C0.264734908,4.24911458 0.203190055,4.23011354 0.15064929,4.19528125 C0.0981103068,4.16044896 0.056812628,4.11125521 0.0317240877,4.05365 C0.00663554741,3.99602708 -0.00117511991,3.93243646 0.0092307908,3.87051042 C0.0196367015,3.80858438 0.0478174467,3.75096146 0.0903833571,3.70458333 L3.26333292,0.2125 Z" id="Shape" fill="url(#linearGradient-1)"></path>
        </g>
    </g>
</svg>